<mxfile host="app.diagrams.net" modified="2020-04-15T14:41:04.977Z" agent="5.0 (Macintosh; Intel Mac OS X 10_15_4) AppleWebKit/537.36 (KHTML, like Gecko) Chrome/80.0.3987.163 Safari/537.36" etag="JMzWBWcst3ryHqAceswI" version="12.9.10" type="github">
  <diagram id="UFQtD4HVYV3ZrvzeGqqZ" name="Page-1">
    <mxGraphModel dx="1113" dy="614" grid="1" gridSize="10" guides="1" tooltips="1" connect="1" arrows="1" fold="1" page="1" pageScale="1" pageWidth="827" pageHeight="1169" math="0" shadow="0">
      <root>
        <mxCell id="0" />
        <mxCell id="1" parent="0" />
        <mxCell id="yTkPrfJT6yr5neGQz8j2-2" value="SYSTÈME" style="shape=umlActor;verticalLabelPosition=bottom;labelBackgroundColor=#ffffff;verticalAlign=top;html=1;outlineConnect=0;fillColor=#d5e8d4;strokeColor=#82b366;" vertex="1" parent="1">
          <mxGeometry x="1470" y="580" width="30" height="60" as="geometry" />
        </mxCell>
        <mxCell id="yTkPrfJT6yr5neGQz8j2-3" value="CLIENT" style="shape=umlActor;verticalLabelPosition=bottom;labelBackgroundColor=#ffffff;verticalAlign=top;html=1;outlineConnect=0;fillColor=#dae8fc;strokeColor=#6c8ebf;" vertex="1" parent="1">
          <mxGeometry x="30" y="650" width="30" height="60" as="geometry" />
        </mxCell>
        <mxCell id="yTkPrfJT6yr5neGQz8j2-4" value="&lt;font style=&quot;font-size: 11px&quot;&gt;ACCEDER AU SITE WEB&lt;/font&gt;" style="ellipse;whiteSpace=wrap;html=1;" vertex="1" parent="1">
          <mxGeometry x="400" y="440" width="150" height="60" as="geometry" />
        </mxCell>
        <mxCell id="yTkPrfJT6yr5neGQz8j2-24" value="" style="endArrow=classic;html=1;entryX=0;entryY=0.5;entryDx=0;entryDy=0;exitX=0.5;exitY=0.5;exitDx=0;exitDy=0;exitPerimeter=0;" edge="1" parent="1" source="yTkPrfJT6yr5neGQz8j2-3" target="yTkPrfJT6yr5neGQz8j2-4">
          <mxGeometry width="50" height="50" relative="1" as="geometry">
            <mxPoint x="110" y="590" as="sourcePoint" />
            <mxPoint x="160" y="540" as="targetPoint" />
          </mxGeometry>
        </mxCell>
        <mxCell id="yTkPrfJT6yr5neGQz8j2-37" value="" style="edgeStyle=orthogonalEdgeStyle;rounded=0;orthogonalLoop=1;jettySize=auto;html=1;dashed=1;" edge="1" parent="1" source="yTkPrfJT6yr5neGQz8j2-26" target="yTkPrfJT6yr5neGQz8j2-36">
          <mxGeometry relative="1" as="geometry" />
        </mxCell>
        <mxCell id="yTkPrfJT6yr5neGQz8j2-38" value="&quot;include&quot;" style="text;html=1;align=center;verticalAlign=middle;resizable=0;points=[];" vertex="1" connectable="0" parent="yTkPrfJT6yr5neGQz8j2-37">
          <mxGeometry x="0.225" relative="1" as="geometry">
            <mxPoint x="-9" y="-10" as="offset" />
          </mxGeometry>
        </mxCell>
        <mxCell id="yTkPrfJT6yr5neGQz8j2-26" value="&lt;font style=&quot;font-size: 10px&quot;&gt;CHOISIR UNE/PLUSIEURS PIZZAS&lt;/font&gt;" style="ellipse;whiteSpace=wrap;html=1;" vertex="1" parent="1">
          <mxGeometry x="400" y="580" width="150" height="60" as="geometry" />
        </mxCell>
        <mxCell id="yTkPrfJT6yr5neGQz8j2-36" value="&lt;font style=&quot;font-size: 10px&quot;&gt;DISPONIBLITÉ DE LA PIZZA&lt;/font&gt;" style="ellipse;whiteSpace=wrap;html=1;" vertex="1" parent="1">
          <mxGeometry x="630" y="580" width="150" height="60" as="geometry" />
        </mxCell>
        <mxCell id="yTkPrfJT6yr5neGQz8j2-27" value="&lt;font style=&quot;font-size: 11px&quot;&gt;COMMANDER&lt;/font&gt;" style="ellipse;whiteSpace=wrap;html=1;" vertex="1" parent="1">
          <mxGeometry x="400" y="800" width="150" height="60" as="geometry" />
        </mxCell>
        <mxCell id="yTkPrfJT6yr5neGQz8j2-28" value="" style="endArrow=classic;html=1;entryX=0;entryY=0.5;entryDx=0;entryDy=0;exitX=0.5;exitY=0.5;exitDx=0;exitDy=0;exitPerimeter=0;" edge="1" parent="1" source="yTkPrfJT6yr5neGQz8j2-3" target="yTkPrfJT6yr5neGQz8j2-26">
          <mxGeometry width="50" height="50" relative="1" as="geometry">
            <mxPoint x="110" y="590" as="sourcePoint" />
            <mxPoint x="520" y="680" as="targetPoint" />
          </mxGeometry>
        </mxCell>
        <mxCell id="yTkPrfJT6yr5neGQz8j2-30" value="" style="endArrow=classic;html=1;entryX=0;entryY=0.5;entryDx=0;entryDy=0;exitX=0.5;exitY=0.5;exitDx=0;exitDy=0;exitPerimeter=0;" edge="1" parent="1" source="yTkPrfJT6yr5neGQz8j2-3" target="yTkPrfJT6yr5neGQz8j2-27">
          <mxGeometry width="50" height="50" relative="1" as="geometry">
            <mxPoint x="110" y="590" as="sourcePoint" />
            <mxPoint x="160" y="540" as="targetPoint" />
          </mxGeometry>
        </mxCell>
        <mxCell id="yTkPrfJT6yr5neGQz8j2-33" value="" style="edgeStyle=orthogonalEdgeStyle;rounded=0;orthogonalLoop=1;jettySize=auto;html=1;dashed=1;" edge="1" parent="1" source="yTkPrfJT6yr5neGQz8j2-31" target="yTkPrfJT6yr5neGQz8j2-32">
          <mxGeometry relative="1" as="geometry" />
        </mxCell>
        <mxCell id="yTkPrfJT6yr5neGQz8j2-31" value="&lt;font style=&quot;font-size: 11px&quot;&gt;CHOISIR UN RESTAURANT&lt;/font&gt;" style="ellipse;whiteSpace=wrap;html=1;" vertex="1" parent="1">
          <mxGeometry x="400" y="510" width="150" height="60" as="geometry" />
        </mxCell>
        <mxCell id="yTkPrfJT6yr5neGQz8j2-32" value="&lt;font style=&quot;font-size: 11px&quot;&gt;DONNER UNE ADRESSE&lt;/font&gt;" style="ellipse;whiteSpace=wrap;html=1;" vertex="1" parent="1">
          <mxGeometry x="640" y="510" width="150" height="60" as="geometry" />
        </mxCell>
        <mxCell id="yTkPrfJT6yr5neGQz8j2-34" value="" style="endArrow=classic;html=1;entryX=0;entryY=0.5;entryDx=0;entryDy=0;exitX=0.5;exitY=0.5;exitDx=0;exitDy=0;exitPerimeter=0;" edge="1" parent="1" source="yTkPrfJT6yr5neGQz8j2-3" target="yTkPrfJT6yr5neGQz8j2-31">
          <mxGeometry width="50" height="50" relative="1" as="geometry">
            <mxPoint x="110" y="590" as="sourcePoint" />
            <mxPoint x="160" y="540" as="targetPoint" />
          </mxGeometry>
        </mxCell>
        <mxCell id="yTkPrfJT6yr5neGQz8j2-35" value="&quot;extend&quot;" style="text;html=1;align=center;verticalAlign=middle;resizable=0;points=[];autosize=1;" vertex="1" parent="1">
          <mxGeometry x="560" y="520" width="60" height="20" as="geometry" />
        </mxCell>
        <mxCell id="yTkPrfJT6yr5neGQz8j2-42" value="" style="edgeStyle=orthogonalEdgeStyle;rounded=0;orthogonalLoop=1;jettySize=auto;html=1;dashed=1;" edge="1" parent="1" source="yTkPrfJT6yr5neGQz8j2-39" target="yTkPrfJT6yr5neGQz8j2-41">
          <mxGeometry relative="1" as="geometry" />
        </mxCell>
        <mxCell id="yTkPrfJT6yr5neGQz8j2-39" value="&lt;font style=&quot;font-size: 11px&quot;&gt;MODIFER SA COMMANDE&lt;/font&gt;" style="ellipse;whiteSpace=wrap;html=1;" vertex="1" parent="1">
          <mxGeometry x="400" y="650" width="150" height="60" as="geometry" />
        </mxCell>
        <mxCell id="yTkPrfJT6yr5neGQz8j2-41" value="&lt;font style=&quot;font-size: 8px&quot;&gt;TANT QUE LA COMMANDE NE SOIT &quot;EN COURS DE PRÉPARATION&quot;&lt;/font&gt;" style="ellipse;whiteSpace=wrap;html=1;" vertex="1" parent="1">
          <mxGeometry x="630" y="650" width="150" height="60" as="geometry" />
        </mxCell>
        <mxCell id="yTkPrfJT6yr5neGQz8j2-40" value="" style="endArrow=classic;html=1;entryX=0;entryY=0.5;entryDx=0;entryDy=0;exitX=0.5;exitY=0.5;exitDx=0;exitDy=0;exitPerimeter=0;" edge="1" parent="1" source="yTkPrfJT6yr5neGQz8j2-3" target="yTkPrfJT6yr5neGQz8j2-39">
          <mxGeometry width="50" height="50" relative="1" as="geometry">
            <mxPoint x="110" y="590" as="sourcePoint" />
            <mxPoint x="160" y="540" as="targetPoint" />
          </mxGeometry>
        </mxCell>
        <mxCell id="yTkPrfJT6yr5neGQz8j2-43" value="&quot;include&quot;" style="text;html=1;strokeColor=none;fillColor=none;align=center;verticalAlign=middle;whiteSpace=wrap;rounded=0;" vertex="1" parent="1">
          <mxGeometry x="560" y="660" width="40" height="20" as="geometry" />
        </mxCell>
        <mxCell id="yTkPrfJT6yr5neGQz8j2-47" value="" style="edgeStyle=orthogonalEdgeStyle;rounded=0;orthogonalLoop=1;jettySize=auto;html=1;dashed=1;" edge="1" parent="1" source="yTkPrfJT6yr5neGQz8j2-44" target="yTkPrfJT6yr5neGQz8j2-46">
          <mxGeometry relative="1" as="geometry" />
        </mxCell>
        <mxCell id="yTkPrfJT6yr5neGQz8j2-44" value="&lt;font style=&quot;font-size: 11px&quot;&gt;ANNULER SA COMMANDE&lt;/font&gt;" style="ellipse;whiteSpace=wrap;html=1;" vertex="1" parent="1">
          <mxGeometry x="400" y="730" width="150" height="60" as="geometry" />
        </mxCell>
        <mxCell id="yTkPrfJT6yr5neGQz8j2-46" value="&lt;span style=&quot;font-size: 8px&quot;&gt;TANT QUE LA COMMANDE NE SOIT &quot;EN COURS DE PRÉPARATION&quot;&lt;/span&gt;" style="ellipse;whiteSpace=wrap;html=1;" vertex="1" parent="1">
          <mxGeometry x="630" y="730" width="150" height="60" as="geometry" />
        </mxCell>
        <mxCell id="yTkPrfJT6yr5neGQz8j2-45" value="" style="endArrow=classic;html=1;entryX=0;entryY=0.5;entryDx=0;entryDy=0;exitX=0.5;exitY=0.5;exitDx=0;exitDy=0;exitPerimeter=0;" edge="1" parent="1" source="yTkPrfJT6yr5neGQz8j2-3" target="yTkPrfJT6yr5neGQz8j2-44">
          <mxGeometry width="50" height="50" relative="1" as="geometry">
            <mxPoint x="110" y="590" as="sourcePoint" />
            <mxPoint x="170" y="540" as="targetPoint" />
          </mxGeometry>
        </mxCell>
        <mxCell id="yTkPrfJT6yr5neGQz8j2-48" value="&quot;include&quot;" style="text;html=1;align=center;verticalAlign=middle;resizable=0;points=[];autosize=1;" vertex="1" parent="1">
          <mxGeometry x="560" y="730" width="60" height="20" as="geometry" />
        </mxCell>
        <mxCell id="yTkPrfJT6yr5neGQz8j2-53" value="" style="edgeStyle=orthogonalEdgeStyle;rounded=0;orthogonalLoop=1;jettySize=auto;html=1;dashed=1;" edge="1" parent="1" source="yTkPrfJT6yr5neGQz8j2-49" target="yTkPrfJT6yr5neGQz8j2-52">
          <mxGeometry relative="1" as="geometry" />
        </mxCell>
        <mxCell id="yTkPrfJT6yr5neGQz8j2-54" value="&quot;extend&quot;" style="text;html=1;align=center;verticalAlign=middle;resizable=0;points=[];" vertex="1" connectable="0" parent="yTkPrfJT6yr5neGQz8j2-53">
          <mxGeometry x="0.05" y="-2" relative="1" as="geometry">
            <mxPoint x="-2" y="-12" as="offset" />
          </mxGeometry>
        </mxCell>
        <mxCell id="yTkPrfJT6yr5neGQz8j2-49" value="&lt;span style=&quot;font-size: 11px&quot;&gt;ÊTRE LIVRÉ&lt;/span&gt;" style="ellipse;whiteSpace=wrap;html=1;" vertex="1" parent="1">
          <mxGeometry x="400" y="1080" width="150" height="60" as="geometry" />
        </mxCell>
        <mxCell id="yTkPrfJT6yr5neGQz8j2-52" value="&lt;font style=&quot;font-size: 10px&quot;&gt;DONNER ACCÈS A UNE ADRESSE&lt;/font&gt;" style="ellipse;whiteSpace=wrap;html=1;" vertex="1" parent="1">
          <mxGeometry x="610" y="1080" width="150" height="60" as="geometry" />
        </mxCell>
        <mxCell id="yTkPrfJT6yr5neGQz8j2-51" value="" style="endArrow=classic;html=1;entryX=0;entryY=0.5;entryDx=0;entryDy=0;exitX=0.5;exitY=0.5;exitDx=0;exitDy=0;exitPerimeter=0;" edge="1" parent="1" source="yTkPrfJT6yr5neGQz8j2-3" target="yTkPrfJT6yr5neGQz8j2-49">
          <mxGeometry width="50" height="50" relative="1" as="geometry">
            <mxPoint x="110" y="590" as="sourcePoint" />
            <mxPoint x="320" y="840" as="targetPoint" />
          </mxGeometry>
        </mxCell>
        <mxCell id="yTkPrfJT6yr5neGQz8j2-56" value="&lt;font style=&quot;font-size: 11px&quot;&gt;RÉGLER EN LIGNE&lt;/font&gt;" style="ellipse;whiteSpace=wrap;html=1;" vertex="1" parent="1">
          <mxGeometry x="400" y="870" width="150" height="60" as="geometry" />
        </mxCell>
        <mxCell id="yTkPrfJT6yr5neGQz8j2-57" value="" style="endArrow=classic;html=1;entryX=0;entryY=0.5;entryDx=0;entryDy=0;exitX=0.5;exitY=0.5;exitDx=0;exitDy=0;exitPerimeter=0;" edge="1" parent="1" source="yTkPrfJT6yr5neGQz8j2-3" target="yTkPrfJT6yr5neGQz8j2-56">
          <mxGeometry width="50" height="50" relative="1" as="geometry">
            <mxPoint x="110" y="590" as="sourcePoint" />
            <mxPoint x="170" y="535" as="targetPoint" />
          </mxGeometry>
        </mxCell>
        <mxCell id="yTkPrfJT6yr5neGQz8j2-58" value="&lt;font style=&quot;font-size: 10px&quot;&gt;SUIVRE L&#39;ÉTAT DE SA COMMANDE&lt;/font&gt;" style="ellipse;whiteSpace=wrap;html=1;" vertex="1" parent="1">
          <mxGeometry x="400" y="940" width="150" height="60" as="geometry" />
        </mxCell>
        <mxCell id="yTkPrfJT6yr5neGQz8j2-59" value="" style="endArrow=classic;html=1;entryX=0;entryY=0.5;entryDx=0;entryDy=0;exitX=0.5;exitY=0.5;exitDx=0;exitDy=0;exitPerimeter=0;" edge="1" parent="1" source="yTkPrfJT6yr5neGQz8j2-3" target="yTkPrfJT6yr5neGQz8j2-58">
          <mxGeometry width="50" height="50" relative="1" as="geometry">
            <mxPoint x="110" y="590" as="sourcePoint" />
            <mxPoint x="160" y="540" as="targetPoint" />
          </mxGeometry>
        </mxCell>
        <mxCell id="yTkPrfJT6yr5neGQz8j2-60" value="&lt;font style=&quot;font-size: 10px&quot;&gt;RECEVOIR DES MESSAGES&lt;/font&gt;" style="ellipse;whiteSpace=wrap;html=1;" vertex="1" parent="1">
          <mxGeometry x="400" y="1010" width="150" height="60" as="geometry" />
        </mxCell>
        <mxCell id="yTkPrfJT6yr5neGQz8j2-61" value="" style="endArrow=classic;html=1;entryX=0;entryY=0.5;entryDx=0;entryDy=0;exitX=0.5;exitY=0.5;exitDx=0;exitDy=0;exitPerimeter=0;" edge="1" parent="1" source="yTkPrfJT6yr5neGQz8j2-3" target="yTkPrfJT6yr5neGQz8j2-60">
          <mxGeometry width="50" height="50" relative="1" as="geometry">
            <mxPoint x="110" y="590" as="sourcePoint" />
            <mxPoint x="160" y="540" as="targetPoint" />
          </mxGeometry>
        </mxCell>
        <mxCell id="yTkPrfJT6yr5neGQz8j2-62" value="&lt;span style=&quot;font-size: 11px&quot;&gt;RÉGLER A LA LIVRAISON&lt;/span&gt;" style="ellipse;whiteSpace=wrap;html=1;" vertex="1" parent="1">
          <mxGeometry x="400" y="1150" width="150" height="60" as="geometry" />
        </mxCell>
        <mxCell id="yTkPrfJT6yr5neGQz8j2-63" value="" style="endArrow=classic;html=1;entryX=0;entryY=0.5;entryDx=0;entryDy=0;exitX=0.5;exitY=0.5;exitDx=0;exitDy=0;exitPerimeter=0;" edge="1" parent="1" source="yTkPrfJT6yr5neGQz8j2-3" target="yTkPrfJT6yr5neGQz8j2-62">
          <mxGeometry width="50" height="50" relative="1" as="geometry">
            <mxPoint x="110" y="590" as="sourcePoint" />
            <mxPoint x="400" y="1180" as="targetPoint" />
          </mxGeometry>
        </mxCell>
        <mxCell id="yTkPrfJT6yr5neGQz8j2-69" value="LIVREUR" style="shape=umlActor;verticalLabelPosition=bottom;labelBackgroundColor=#ffffff;verticalAlign=top;html=1;outlineConnect=0;fillColor=#ffe6cc;strokeColor=#d79b00;" vertex="1" parent="1">
          <mxGeometry x="950" y="1120" width="30" height="60" as="geometry" />
        </mxCell>
        <mxCell id="yTkPrfJT6yr5neGQz8j2-74" value="" style="endArrow=classic;html=1;dashed=1;exitX=0;exitY=1;exitDx=0;exitDy=0;exitPerimeter=0;entryX=1;entryY=0.5;entryDx=0;entryDy=0;" edge="1" parent="1" source="yTkPrfJT6yr5neGQz8j2-69" target="yTkPrfJT6yr5neGQz8j2-62">
          <mxGeometry width="50" height="50" relative="1" as="geometry">
            <mxPoint x="860" y="1179.5" as="sourcePoint" />
            <mxPoint x="780" y="1180" as="targetPoint" />
          </mxGeometry>
        </mxCell>
        <mxCell id="yTkPrfJT6yr5neGQz8j2-78" value="&lt;font style=&quot;font-size: 9px&quot;&gt;ASSURE LE SUIVI DES PIZZAS DISPONIBLES&lt;/font&gt;" style="ellipse;whiteSpace=wrap;html=1;" vertex="1" parent="1">
          <mxGeometry x="890" y="580" width="150" height="60" as="geometry" />
        </mxCell>
        <mxCell id="yTkPrfJT6yr5neGQz8j2-81" value="" style="endArrow=none;html=1;dashed=1;entryX=0;entryY=0.5;entryDx=0;entryDy=0;startArrow=classic;startFill=1;endFill=0;" edge="1" parent="1" target="yTkPrfJT6yr5neGQz8j2-78">
          <mxGeometry width="50" height="50" relative="1" as="geometry">
            <mxPoint x="780" y="610" as="sourcePoint" />
            <mxPoint x="830" y="560" as="targetPoint" />
          </mxGeometry>
        </mxCell>
        <mxCell id="yTkPrfJT6yr5neGQz8j2-83" value="" style="edgeStyle=orthogonalEdgeStyle;rounded=0;orthogonalLoop=1;jettySize=auto;html=1;startArrow=classic;startFill=1;endArrow=none;endFill=0;exitX=1;exitY=0.5;exitDx=0;exitDy=0;entryX=0.5;entryY=0.5;entryDx=0;entryDy=0;entryPerimeter=0;" edge="1" parent="1" source="yTkPrfJT6yr5neGQz8j2-94" target="yTkPrfJT6yr5neGQz8j2-2">
          <mxGeometry relative="1" as="geometry">
            <mxPoint x="1200" y="610" as="sourcePoint" />
          </mxGeometry>
        </mxCell>
        <mxCell id="yTkPrfJT6yr5neGQz8j2-88" value="&lt;font style=&quot;font-size: 9px&quot;&gt;AJOUTER OU SUPPRIMER DES PIZZAS&lt;/font&gt;" style="ellipse;whiteSpace=wrap;html=1;" vertex="1" parent="1">
          <mxGeometry x="890" y="480" width="150" height="60" as="geometry" />
        </mxCell>
        <mxCell id="yTkPrfJT6yr5neGQz8j2-90" value="" style="endArrow=classic;html=1;entryX=0.5;entryY=1;entryDx=0;entryDy=0;dashed=1;exitX=0.5;exitY=0;exitDx=0;exitDy=0;" edge="1" parent="1" source="yTkPrfJT6yr5neGQz8j2-78" target="yTkPrfJT6yr5neGQz8j2-88">
          <mxGeometry width="50" height="50" relative="1" as="geometry">
            <mxPoint x="1060" y="560" as="sourcePoint" />
            <mxPoint x="1100" y="660" as="targetPoint" />
          </mxGeometry>
        </mxCell>
        <mxCell id="yTkPrfJT6yr5neGQz8j2-93" value="" style="endArrow=classic;html=1;dashed=1;entryX=0;entryY=0.5;entryDx=0;entryDy=0;startArrow=classic;startFill=1;" edge="1" parent="1" target="yTkPrfJT6yr5neGQz8j2-88">
          <mxGeometry width="50" height="50" relative="1" as="geometry">
            <mxPoint x="780" y="610" as="sourcePoint" />
            <mxPoint x="830" y="560" as="targetPoint" />
          </mxGeometry>
        </mxCell>
        <mxCell id="yTkPrfJT6yr5neGQz8j2-94" value="&lt;font style=&quot;font-size: 9px&quot;&gt;SUIVI DES STOCKS&lt;/font&gt;" style="ellipse;whiteSpace=wrap;html=1;" vertex="1" parent="1">
          <mxGeometry x="1120" y="580" width="150" height="60" as="geometry" />
        </mxCell>
        <mxCell id="yTkPrfJT6yr5neGQz8j2-96" value="" style="endArrow=classic;html=1;dashed=1;entryX=1;entryY=0.5;entryDx=0;entryDy=0;exitX=0;exitY=0.5;exitDx=0;exitDy=0;" edge="1" parent="1" source="yTkPrfJT6yr5neGQz8j2-94" target="yTkPrfJT6yr5neGQz8j2-78">
          <mxGeometry width="50" height="50" relative="1" as="geometry">
            <mxPoint x="1050" y="710" as="sourcePoint" />
            <mxPoint x="1100" y="660" as="targetPoint" />
          </mxGeometry>
        </mxCell>
        <mxCell id="yTkPrfJT6yr5neGQz8j2-97" value="&lt;font style=&quot;font-size: 8px&quot;&gt;PREND EN COMPTE LES MODIFICATIONS DE COMMANDE SUIVANT LES CRITÈRES DÉFINIS&lt;/font&gt;" style="ellipse;whiteSpace=wrap;html=1;" vertex="1" parent="1">
          <mxGeometry x="1120" y="640" width="150" height="80" as="geometry" />
        </mxCell>
        <mxCell id="yTkPrfJT6yr5neGQz8j2-98" value="" style="endArrow=classic;html=1;entryX=1;entryY=0.5;entryDx=0;entryDy=0;exitX=0.5;exitY=0.5;exitDx=0;exitDy=0;exitPerimeter=0;" edge="1" parent="1" source="yTkPrfJT6yr5neGQz8j2-2" target="yTkPrfJT6yr5neGQz8j2-97">
          <mxGeometry width="50" height="50" relative="1" as="geometry">
            <mxPoint x="1380" y="600" as="sourcePoint" />
            <mxPoint x="1400" y="560" as="targetPoint" />
          </mxGeometry>
        </mxCell>
        <mxCell id="yTkPrfJT6yr5neGQz8j2-99" value="" style="endArrow=classic;html=1;entryX=1;entryY=0.5;entryDx=0;entryDy=0;exitX=0;exitY=0.5;exitDx=0;exitDy=0;dashed=1;" edge="1" parent="1" source="yTkPrfJT6yr5neGQz8j2-97" target="yTkPrfJT6yr5neGQz8j2-41">
          <mxGeometry width="50" height="50" relative="1" as="geometry">
            <mxPoint x="900" y="710" as="sourcePoint" />
            <mxPoint x="950" y="660" as="targetPoint" />
          </mxGeometry>
        </mxCell>
        <mxCell id="yTkPrfJT6yr5neGQz8j2-100" value="&lt;font style=&quot;font-size: 8px&quot;&gt;PREND EN COMPTE LES ANNULATIONS DE COMMANDE&lt;/font&gt;" style="ellipse;whiteSpace=wrap;html=1;" vertex="1" parent="1">
          <mxGeometry x="1120" y="730" width="150" height="60" as="geometry" />
        </mxCell>
        <mxCell id="yTkPrfJT6yr5neGQz8j2-102" value="" style="endArrow=classic;html=1;entryX=1;entryY=0.5;entryDx=0;entryDy=0;exitX=0;exitY=0.5;exitDx=0;exitDy=0;dashed=1;" edge="1" parent="1" source="yTkPrfJT6yr5neGQz8j2-100" target="yTkPrfJT6yr5neGQz8j2-46">
          <mxGeometry width="50" height="50" relative="1" as="geometry">
            <mxPoint x="870" y="710" as="sourcePoint" />
            <mxPoint x="920" y="660" as="targetPoint" />
          </mxGeometry>
        </mxCell>
        <mxCell id="yTkPrfJT6yr5neGQz8j2-114" value="" style="edgeStyle=orthogonalEdgeStyle;rounded=0;orthogonalLoop=1;jettySize=auto;html=1;dashed=1;startArrow=none;startFill=0;endArrow=classic;endFill=1;" edge="1" parent="1" source="yTkPrfJT6yr5neGQz8j2-127" target="yTkPrfJT6yr5neGQz8j2-113">
          <mxGeometry relative="1" as="geometry" />
        </mxCell>
        <mxCell id="yTkPrfJT6yr5neGQz8j2-105" value="&lt;font style=&quot;font-size: 10px&quot;&gt;SUIT L&#39;ÉTAT DE CHAQUE COMMANDE EN LIVE&lt;/font&gt;" style="ellipse;whiteSpace=wrap;html=1;" vertex="1" parent="1">
          <mxGeometry x="1130" y="810" width="150" height="60" as="geometry" />
        </mxCell>
        <mxCell id="yTkPrfJT6yr5neGQz8j2-113" value="&lt;font style=&quot;font-size: 10px&quot;&gt;ENVOIE UN MESSAGE DE SUIVI&lt;/font&gt;" style="ellipse;whiteSpace=wrap;html=1;" vertex="1" parent="1">
          <mxGeometry x="630" y="980" width="150" height="60" as="geometry" />
        </mxCell>
        <mxCell id="yTkPrfJT6yr5neGQz8j2-107" value="" style="endArrow=classic;html=1;dashed=1;entryX=1;entryY=0.5;entryDx=0;entryDy=0;exitX=0.5;exitY=0.5;exitDx=0;exitDy=0;exitPerimeter=0;" edge="1" parent="1" source="yTkPrfJT6yr5neGQz8j2-2" target="yTkPrfJT6yr5neGQz8j2-100">
          <mxGeometry width="50" height="50" relative="1" as="geometry">
            <mxPoint x="1430" y="610" as="sourcePoint" />
            <mxPoint x="1390" y="680" as="targetPoint" />
          </mxGeometry>
        </mxCell>
        <mxCell id="yTkPrfJT6yr5neGQz8j2-115" value="" style="endArrow=classic;html=1;dashed=1;exitX=0;exitY=0.5;exitDx=0;exitDy=0;entryX=1;entryY=0.5;entryDx=0;entryDy=0;" edge="1" parent="1" source="yTkPrfJT6yr5neGQz8j2-113" target="yTkPrfJT6yr5neGQz8j2-60">
          <mxGeometry width="50" height="50" relative="1" as="geometry">
            <mxPoint x="810" y="880" as="sourcePoint" />
            <mxPoint x="860" y="830" as="targetPoint" />
          </mxGeometry>
        </mxCell>
        <mxCell id="yTkPrfJT6yr5neGQz8j2-116" value="" style="endArrow=classic;html=1;dashed=1;entryX=1;entryY=0.5;entryDx=0;entryDy=0;exitX=0;exitY=0.5;exitDx=0;exitDy=0;" edge="1" parent="1" source="yTkPrfJT6yr5neGQz8j2-105" target="yTkPrfJT6yr5neGQz8j2-58">
          <mxGeometry width="50" height="50" relative="1" as="geometry">
            <mxPoint x="810" y="880" as="sourcePoint" />
            <mxPoint x="860" y="830" as="targetPoint" />
          </mxGeometry>
        </mxCell>
        <mxCell id="yTkPrfJT6yr5neGQz8j2-117" value="&lt;font style=&quot;font-size: 7px&quot;&gt;AFFICHE UN AIDE MÉMOIRE POUR LA RECETTE DE CHAQUE PIZZA&lt;/font&gt;" style="ellipse;whiteSpace=wrap;html=1;" vertex="1" parent="1">
          <mxGeometry x="1130" y="900" width="150" height="60" as="geometry" />
        </mxCell>
        <mxCell id="yTkPrfJT6yr5neGQz8j2-118" value="PIZZAIOLO" style="shape=umlActor;verticalLabelPosition=bottom;labelBackgroundColor=#ffffff;verticalAlign=top;html=1;outlineConnect=0;fillColor=#fff2cc;strokeColor=#d6b656;" vertex="1" parent="1">
          <mxGeometry x="1580" y="1080" width="30" height="60" as="geometry" />
        </mxCell>
        <mxCell id="yTkPrfJT6yr5neGQz8j2-124" value="" style="endArrow=classic;html=1;exitX=1;exitY=0.5;exitDx=0;exitDy=0;" edge="1" parent="1" source="yTkPrfJT6yr5neGQz8j2-117" target="yTkPrfJT6yr5neGQz8j2-118">
          <mxGeometry width="50" height="50" relative="1" as="geometry">
            <mxPoint x="1110" y="1180" as="sourcePoint" />
            <mxPoint x="1160" y="1130" as="targetPoint" />
          </mxGeometry>
        </mxCell>
        <mxCell id="yTkPrfJT6yr5neGQz8j2-126" value="" style="endArrow=none;html=1;entryX=0.5;entryY=0.5;entryDx=0;entryDy=0;entryPerimeter=0;dashed=1;exitX=1;exitY=0.5;exitDx=0;exitDy=0;" edge="1" parent="1" source="yTkPrfJT6yr5neGQz8j2-145" target="yTkPrfJT6yr5neGQz8j2-118">
          <mxGeometry width="50" height="50" relative="1" as="geometry">
            <mxPoint x="1430" y="890" as="sourcePoint" />
            <mxPoint x="1320" y="780" as="targetPoint" />
          </mxGeometry>
        </mxCell>
        <mxCell id="yTkPrfJT6yr5neGQz8j2-128" value="" style="endArrow=classic;html=1;dashed=1;entryX=0;entryY=0.5;entryDx=0;entryDy=0;exitX=1;exitY=0.5;exitDx=0;exitDy=0;" edge="1" parent="1" source="yTkPrfJT6yr5neGQz8j2-56" target="yTkPrfJT6yr5neGQz8j2-127">
          <mxGeometry width="50" height="50" relative="1" as="geometry">
            <mxPoint x="800" y="970" as="sourcePoint" />
            <mxPoint x="850" y="920" as="targetPoint" />
          </mxGeometry>
        </mxCell>
        <mxCell id="yTkPrfJT6yr5neGQz8j2-129" value="RESPONSABLE DU MAGASIN" style="shape=umlActor;verticalLabelPosition=bottom;labelBackgroundColor=#ffffff;verticalAlign=top;html=1;outlineConnect=0;fillColor=#f8cecc;strokeColor=#b85450;" vertex="1" parent="1">
          <mxGeometry x="1750" y="480" width="30" height="60" as="geometry" />
        </mxCell>
        <mxCell id="yTkPrfJT6yr5neGQz8j2-137" value="" style="endArrow=classic;html=1;entryX=1;entryY=0.5;entryDx=0;entryDy=0;exitX=0.5;exitY=0.5;exitDx=0;exitDy=0;exitPerimeter=0;" edge="1" parent="1" source="yTkPrfJT6yr5neGQz8j2-129" target="yTkPrfJT6yr5neGQz8j2-94">
          <mxGeometry width="50" height="50" relative="1" as="geometry">
            <mxPoint x="1190" y="820" as="sourcePoint" />
            <mxPoint x="1240" y="770" as="targetPoint" />
          </mxGeometry>
        </mxCell>
        <mxCell id="yTkPrfJT6yr5neGQz8j2-140" value="" style="endArrow=classic;html=1;entryX=1;entryY=0.5;entryDx=0;entryDy=0;exitX=0.5;exitY=0.5;exitDx=0;exitDy=0;exitPerimeter=0;" edge="1" parent="1" source="yTkPrfJT6yr5neGQz8j2-129" target="yTkPrfJT6yr5neGQz8j2-88">
          <mxGeometry width="50" height="50" relative="1" as="geometry">
            <mxPoint x="1190" y="500" as="sourcePoint" />
            <mxPoint x="1240" y="450" as="targetPoint" />
          </mxGeometry>
        </mxCell>
        <mxCell id="yTkPrfJT6yr5neGQz8j2-127" value="&lt;font style=&quot;font-size: 9px&quot;&gt;MET EN LIEN LE CLIENT ET SA BANQUE&lt;/font&gt;" style="ellipse;whiteSpace=wrap;html=1;" vertex="1" parent="1">
          <mxGeometry x="630" y="810" width="150" height="60" as="geometry" />
        </mxCell>
        <mxCell id="yTkPrfJT6yr5neGQz8j2-141" value="" style="edgeStyle=orthogonalEdgeStyle;rounded=0;orthogonalLoop=1;jettySize=auto;html=1;dashed=1;startArrow=none;startFill=0;endArrow=classic;endFill=1;" edge="1" parent="1" source="yTkPrfJT6yr5neGQz8j2-105" target="yTkPrfJT6yr5neGQz8j2-127">
          <mxGeometry relative="1" as="geometry">
            <mxPoint x="1130" y="830" as="sourcePoint" />
            <mxPoint x="705" y="1010" as="targetPoint" />
          </mxGeometry>
        </mxCell>
        <mxCell id="yTkPrfJT6yr5neGQz8j2-142" value="" style="endArrow=classic;html=1;exitX=0.5;exitY=0.5;exitDx=0;exitDy=0;exitPerimeter=0;entryX=1;entryY=0.5;entryDx=0;entryDy=0;" edge="1" parent="1" source="yTkPrfJT6yr5neGQz8j2-129" target="yTkPrfJT6yr5neGQz8j2-105">
          <mxGeometry width="50" height="50" relative="1" as="geometry">
            <mxPoint x="1480" y="540" as="sourcePoint" />
            <mxPoint x="1530" y="490" as="targetPoint" />
          </mxGeometry>
        </mxCell>
        <mxCell id="yTkPrfJT6yr5neGQz8j2-144" value="" style="endArrow=classic;html=1;entryX=1;entryY=0.383;entryDx=0;entryDy=0;entryPerimeter=0;exitX=0;exitY=1;exitDx=0;exitDy=0;exitPerimeter=0;dashed=1;" edge="1" parent="1" source="yTkPrfJT6yr5neGQz8j2-69" target="yTkPrfJT6yr5neGQz8j2-52">
          <mxGeometry width="50" height="50" relative="1" as="geometry">
            <mxPoint x="1010" y="1160" as="sourcePoint" />
            <mxPoint x="1060" y="1110" as="targetPoint" />
          </mxGeometry>
        </mxCell>
        <mxCell id="yTkPrfJT6yr5neGQz8j2-145" value="&lt;font style=&quot;font-size: 10px&quot;&gt;PASSE LA COMMANDE EN &quot;PRET À LA LIVRAISON&quot;&lt;/font&gt;" style="ellipse;whiteSpace=wrap;html=1;" vertex="1" parent="1">
          <mxGeometry x="1520" y="840" width="150" height="60" as="geometry" />
        </mxCell>
        <mxCell id="yTkPrfJT6yr5neGQz8j2-146" value="" style="endArrow=classic;html=1;dashed=1;entryX=1;entryY=0.5;entryDx=0;entryDy=0;exitX=0;exitY=0.5;exitDx=0;exitDy=0;" edge="1" parent="1" source="yTkPrfJT6yr5neGQz8j2-145" target="yTkPrfJT6yr5neGQz8j2-105">
          <mxGeometry width="50" height="50" relative="1" as="geometry">
            <mxPoint x="1240" y="1070" as="sourcePoint" />
            <mxPoint x="1290" y="1020" as="targetPoint" />
          </mxGeometry>
        </mxCell>
        <mxCell id="yTkPrfJT6yr5neGQz8j2-148" value="" style="endArrow=classic;html=1;entryX=1;entryY=0.5;entryDx=0;entryDy=0;exitX=0.5;exitY=0.5;exitDx=0;exitDy=0;exitPerimeter=0;" edge="1" parent="1" source="yTkPrfJT6yr5neGQz8j2-2" target="yTkPrfJT6yr5neGQz8j2-117">
          <mxGeometry width="50" height="50" relative="1" as="geometry">
            <mxPoint x="1180" y="1050" as="sourcePoint" />
            <mxPoint x="1230" y="1000" as="targetPoint" />
          </mxGeometry>
        </mxCell>
        <mxCell id="yTkPrfJT6yr5neGQz8j2-149" value="&lt;font style=&quot;font-size: 10px&quot;&gt;SCANNER LE QR CODE&lt;/font&gt;" style="ellipse;whiteSpace=wrap;html=1;" vertex="1" parent="1">
          <mxGeometry x="770" y="930" width="150" height="60" as="geometry" />
        </mxCell>
        <mxCell id="yTkPrfJT6yr5neGQz8j2-150" value="" style="endArrow=classic;html=1;exitX=0;exitY=1;exitDx=0;exitDy=0;exitPerimeter=0;entryX=1;entryY=0.5;entryDx=0;entryDy=0;" edge="1" parent="1" source="yTkPrfJT6yr5neGQz8j2-69" target="yTkPrfJT6yr5neGQz8j2-149">
          <mxGeometry width="50" height="50" relative="1" as="geometry">
            <mxPoint x="910" y="1160" as="sourcePoint" />
            <mxPoint x="960" y="1110" as="targetPoint" />
          </mxGeometry>
        </mxCell>
        <mxCell id="yTkPrfJT6yr5neGQz8j2-152" value="" style="endArrow=classic;html=1;entryX=1;entryY=0.5;entryDx=0;entryDy=0;exitX=0;exitY=0.5;exitDx=0;exitDy=0;dashed=1;" edge="1" parent="1" source="yTkPrfJT6yr5neGQz8j2-149" target="yTkPrfJT6yr5neGQz8j2-58">
          <mxGeometry width="50" height="50" relative="1" as="geometry">
            <mxPoint x="730" y="1060" as="sourcePoint" />
            <mxPoint x="780" y="1010" as="targetPoint" />
          </mxGeometry>
        </mxCell>
        <mxCell id="yTkPrfJT6yr5neGQz8j2-154" value="ADMINISTRATEUR" style="shape=umlActor;verticalLabelPosition=bottom;labelBackgroundColor=#ffffff;verticalAlign=top;html=1;outlineConnect=0;fillColor=#e1d5e7;strokeColor=#9673a6;" vertex="1" parent="1">
          <mxGeometry x="1710" y="160" width="30" height="60" as="geometry" />
        </mxCell>
        <mxCell id="yTkPrfJT6yr5neGQz8j2-155" value="" style="endArrow=classic;html=1;exitX=1;exitY=1;exitDx=0;exitDy=0;exitPerimeter=0;entryX=0.5;entryY=0;entryDx=0;entryDy=0;" edge="1" parent="1" source="yTkPrfJT6yr5neGQz8j2-154" target="yTkPrfJT6yr5neGQz8j2-157">
          <mxGeometry width="50" height="50" relative="1" as="geometry">
            <mxPoint x="1750" y="390" as="sourcePoint" />
            <mxPoint x="1660" y="280" as="targetPoint" />
          </mxGeometry>
        </mxCell>
        <mxCell id="yTkPrfJT6yr5neGQz8j2-157" value="&lt;font style=&quot;font-size: 9px&quot;&gt;GÈRE L&#39;ACCÈS PRO AU SITE&lt;/font&gt;" style="ellipse;whiteSpace=wrap;html=1;" vertex="1" parent="1">
          <mxGeometry x="2120" y="370" width="150" height="60" as="geometry" />
        </mxCell>
        <mxCell id="yTkPrfJT6yr5neGQz8j2-159" value="" style="endArrow=classic;html=1;exitX=0.5;exitY=1;exitDx=0;exitDy=0;dashed=1;" edge="1" parent="1" source="yTkPrfJT6yr5neGQz8j2-157">
          <mxGeometry width="50" height="50" relative="1" as="geometry">
            <mxPoint x="1970" y="910" as="sourcePoint" />
            <mxPoint x="1600" y="1110" as="targetPoint" />
          </mxGeometry>
        </mxCell>
        <mxCell id="yTkPrfJT6yr5neGQz8j2-160" value="" style="endArrow=classic;html=1;dashed=1;entryX=1;entryY=1;entryDx=0;entryDy=0;entryPerimeter=0;exitX=0.5;exitY=1;exitDx=0;exitDy=0;" edge="1" parent="1" source="yTkPrfJT6yr5neGQz8j2-157" target="yTkPrfJT6yr5neGQz8j2-69">
          <mxGeometry width="50" height="50" relative="1" as="geometry">
            <mxPoint x="1510" y="980" as="sourcePoint" />
            <mxPoint x="1560" y="930" as="targetPoint" />
          </mxGeometry>
        </mxCell>
        <mxCell id="yTkPrfJT6yr5neGQz8j2-161" value="" style="endArrow=classic;html=1;dashed=1;entryX=0.5;entryY=0.5;entryDx=0;entryDy=0;entryPerimeter=0;exitX=0.431;exitY=1.111;exitDx=0;exitDy=0;exitPerimeter=0;" edge="1" parent="1" source="yTkPrfJT6yr5neGQz8j2-157" target="yTkPrfJT6yr5neGQz8j2-129">
          <mxGeometry width="50" height="50" relative="1" as="geometry">
            <mxPoint x="1510" y="590" as="sourcePoint" />
            <mxPoint x="1560" y="540" as="targetPoint" />
          </mxGeometry>
        </mxCell>
        <mxCell id="yTkPrfJT6yr5neGQz8j2-162" value="" style="endArrow=classic;html=1;entryX=0.5;entryY=0;entryDx=0;entryDy=0;exitX=1;exitY=1;exitDx=0;exitDy=0;exitPerimeter=0;" edge="1" parent="1" source="yTkPrfJT6yr5neGQz8j2-154" target="yTkPrfJT6yr5neGQz8j2-94">
          <mxGeometry width="50" height="50" relative="1" as="geometry">
            <mxPoint x="1510" y="540" as="sourcePoint" />
            <mxPoint x="1560" y="490" as="targetPoint" />
          </mxGeometry>
        </mxCell>
        <mxCell id="yTkPrfJT6yr5neGQz8j2-163" value="" style="endArrow=none;startArrow=classic;html=1;endFill=0;entryX=1;entryY=1;entryDx=0;entryDy=0;entryPerimeter=0;exitX=1;exitY=0.5;exitDx=0;exitDy=0;" edge="1" parent="1" source="yTkPrfJT6yr5neGQz8j2-100" target="yTkPrfJT6yr5neGQz8j2-154">
          <mxGeometry width="50" height="50" relative="1" as="geometry">
            <mxPoint x="1510" y="500" as="sourcePoint" />
            <mxPoint x="1740" y="230" as="targetPoint" />
          </mxGeometry>
        </mxCell>
      </root>
    </mxGraphModel>
  </diagram>
</mxfile>
